<svg width="1200" height="411" viewBox="0 0 1200 411" fill="none" xmlns="http://www.w3.org/2000/svg">
<g clip-path="url(#clip0_22_59)">
<path d="M279.117 218.114C278.622 166.173 321.551 141.217 323.483 140.028C299.319 104.724 261.787 99.8717 248.418 99.327C216.48 96.059 186.078 118.143 169.837 118.143C153.596 118.143 128.591 99.7727 102.1 100.317C67.2416 100.812 35.1063 120.569 17.1323 151.764C-19.0138 214.45 7.92244 307.538 43.2268 358.489C60.5076 383.396 81.0068 411.471 108.042 410.431C134.087 409.391 143.891 393.596 175.284 393.596C206.676 393.596 215.54 410.431 243.02 409.936C270.997 409.391 288.723 384.485 305.855 359.48C325.562 330.513 333.732 302.537 334.227 301.052C333.584 300.804 279.711 280.156 279.117 218.114Z" fill="white"/>
<path d="M227.473 65.5581C241.832 48.1783 251.488 24.0644 248.863 0C228.215 0.841758 203.21 13.7652 188.405 31.145C175.135 46.4947 163.499 71.0543 166.668 94.6235C189.594 96.406 213.163 82.8884 227.473 65.5581ZM460.194 269.164L436.427 341.209H405.876L483.664 112.251H519.315L597.4 341.209H565.81L541.349 269.164H460.194ZM535.259 246.041L512.878 180.136C507.778 165.183 504.411 151.615 500.994 138.345H500.351C496.934 151.913 493.221 165.826 488.814 179.79L466.433 245.991L535.259 246.041ZM620.574 230.444C620.574 209.4 619.93 192.366 619.187 176.769H646.024L647.411 204.993H648.054C660.285 184.939 679.645 173.055 706.482 173.055C746.243 173.055 776.101 206.676 776.101 256.637C776.101 315.758 740.103 344.923 701.382 344.923C679.645 344.923 660.631 335.416 650.778 319.125H650.134V408.451H620.574V230.444V230.444ZM650.085 274.265C650.085 278.721 650.728 282.732 651.471 286.495C656.918 307.192 674.892 321.502 696.332 321.502C727.922 321.502 746.293 295.705 746.293 257.974C746.293 224.997 728.962 196.872 697.372 196.872C677.021 196.872 658.007 211.479 652.164 233.91C651.124 237.623 650.134 242.08 650.134 246.14L650.085 274.265ZM806.998 230.444C806.998 209.4 806.354 192.366 805.612 176.769H832.449L833.835 204.993H834.479C846.709 184.939 866.07 173.055 892.907 173.055C932.668 173.055 962.525 206.676 962.525 256.637C962.525 315.758 926.528 344.923 887.807 344.923C866.07 344.923 847.056 335.416 837.202 319.125H836.559V408.451H806.998V230.444V230.444ZM836.559 274.265C836.559 278.721 837.202 282.732 837.945 286.495C843.392 307.192 861.366 321.502 882.806 321.502C914.397 321.502 932.767 295.705 932.767 257.974C932.767 224.997 915.436 196.872 883.846 196.872C863.495 196.872 844.481 211.479 838.638 233.91C837.599 237.623 836.608 242.08 836.608 246.14L836.559 274.265ZM993.472 100.021H1023.38V341.159H993.472V100.021ZM1083.49 264.411C1084.13 304.815 1109.98 321.502 1139.84 321.502C1161.23 321.502 1174.15 317.788 1185.34 313.035L1190.44 334.425C1179.95 339.179 1161.92 344.626 1135.78 344.626C1085.17 344.626 1054.92 311.351 1054.92 261.737C1054.92 212.123 1084.13 173.055 1132.02 173.055C1185.69 173.055 1199.95 220.243 1199.95 250.497C1199.95 256.637 1199.31 261.341 1198.91 264.411H1083.49ZM1171.13 243.02C1171.48 224.007 1163.31 194.446 1129.69 194.446C1099.43 194.446 1086.21 222.323 1083.84 243.02H1171.13V243.02Z" fill="white"/>
</g>
<defs>
<clipPath id="clip0_22_59">
<rect width="1200" height="410.481" fill="white"/>
</clipPath>
</defs>
</svg>
