<svg width="1200" height="179" viewBox="0 0 1200 179" fill="none" xmlns="http://www.w3.org/2000/svg">
<path fill-rule="evenodd" clip-rule="evenodd" d="M1166.33 157.358C1166.33 148.627 1172.89 141.97 1181.33 141.97C1189.7 141.97 1196.28 148.627 1196.28 157.358C1196.28 166.273 1189.7 172.852 1181.33 172.852C1172.89 172.852 1166.33 166.273 1166.33 157.358ZM1181.33 175.897C1191.41 175.897 1200 168.087 1200 157.358C1200 146.795 1191.4 138.925 1181.33 138.925C1171.19 138.925 1162.61 146.792 1162.61 157.358C1162.61 168.087 1171.19 175.897 1181.33 175.897ZM1177.42 158.807H1181.14L1186.77 168.087H1190.38L1184.32 158.666C1187.45 158.273 1189.85 156.635 1189.85 152.829C1189.85 148.63 1187.35 146.795 1182.31 146.795H1174.2V168.087H1177.42V158.807H1177.42ZM1177.42 156.099V149.499H1181.82C1184.08 149.499 1186.47 149.986 1186.47 152.629C1186.47 155.902 1184.03 156.097 1181.28 156.097H1177.42V156.099V156.099ZM268.715 110.309C261.151 110.309 258.991 112.091 257.91 114.893L242.785 154.356C241.708 157.158 241.166 159.448 241.166 161.23C241.166 164.286 241.434 166.828 262.502 168.869V175.489C258.449 175.489 245.216 173.962 234.68 173.962C224.687 173.962 215.772 175.489 210.371 175.489V169.376C226.309 168.101 230.091 163.263 233.061 155.374L294.645 2.35801H298.156L358.663 155.883C362.984 167.088 368.114 168.869 382.162 168.869V175.489C377.029 175.489 367.843 173.962 346.237 173.962C323.818 173.962 318.688 175.489 314.37 175.489V168.869C325.174 168.358 335.167 167.088 335.167 163.011C335.167 161.996 335.167 160.721 333.548 156.392L316.801 110.312H268.715V110.309ZM288.841 35.3241L286.271 41.058L266.013 94.526C265.204 96.5618 264.662 98.5976 264.662 100.379C264.662 101.654 265.472 102.675 267.093 102.675L314.364 103.435L288.841 35.3241ZM496.248 172.792C486.818 173.729 466.712 175.361 464.478 175.361C463.485 175.361 462.74 174.425 462.494 173.258L461.254 160.859H460.758C456.787 169.281 443.884 177.706 426.26 177.706C404.418 177.706 390.519 168.347 390.519 143.078V87.4005C390.519 84.8259 388.535 83.8892 374.138 83.8892V77.5732L411.118 75.2342C411.118 79.915 410.377 86.9322 410.377 95.3544V161.798C410.377 170.919 420.553 172.327 428.743 172.327C453.314 172.094 460.263 157.12 460.263 141.913V89.7369C460.263 85.056 457.534 83.8865 442.642 83.8865V77.5705L479.622 75.2315C479.622 82.4842 478.881 88.8029 478.881 97.6934V147.29C478.881 153.371 479.874 161.793 480.37 164.833C480.868 166.942 481.363 167.408 482.105 167.408H496.253V172.792H496.248V172.792ZM636.558 173.908C661.877 173.908 670.315 147.934 670.315 125.245C670.315 102.55 661.877 76.5797 636.558 76.5797C611.243 76.5797 602.805 102.55 602.805 125.245C602.805 147.937 611.243 173.908 636.558 173.908ZM636.558 72.1371C667.334 72.1371 691.163 90.8549 691.163 125.245C691.163 159.635 667.334 178.353 636.558 178.353C605.783 178.353 581.956 159.635 581.956 125.245C581.956 90.8549 605.783 72.1371 636.558 72.1371V72.1371ZM829.103 172.088L794.851 176.065L792.617 160.393C783.191 171.154 771.769 177.706 755.885 177.706C721.882 177.706 706.494 150.799 706.494 122.492C706.494 95.1188 725.854 71.4901 756.633 71.4901C773.509 71.4901 782.194 77.1049 792.62 86.9322L790.882 20.9567C790.633 13.9396 787.408 9.49429 780.21 9.02594L766.806 8.08923V2.24159C779.961 2.24159 796.342 1.30489 812.228 0.370892L810.488 159.456C810.488 162.962 812.472 165.77 816.693 165.77H829.103V172.088ZM792.614 107.285C792.614 92.3114 778.965 75.9326 761.094 75.9326C735.53 75.9326 727.338 102.133 727.338 122.492C727.338 151.738 739.997 171.617 763.325 171.617C780.202 171.617 792.612 154.305 792.612 139.331V107.285H792.614V107.285ZM856.773 118.277C855.78 151.497 866.452 171.384 892.761 171.384C916.839 171.384 928.502 155.712 933.965 140.739L937.936 142.146C930.74 163.433 915.845 177.706 887.552 177.706C853.303 177.706 835.928 155.482 835.928 127.405C835.928 96.5212 857.523 71.4901 891.523 71.4901C921.807 71.4901 937.939 92.5497 937.939 118.279H856.773V118.277V118.277ZM915.098 111.963C917.581 111.963 918.081 110.556 918.081 106.348C918.081 90.6709 909.892 75.9326 891.521 75.9326C870.426 75.9326 857.767 94.8833 856.773 112.9L915.098 111.963V111.963ZM954.932 147.756H961.636C964.616 162.962 975.039 173.258 990.92 173.258C1000.35 173.258 1009.53 166.706 1009.53 154.307C1009.53 129.276 958.157 131.612 958.157 97.6934C958.157 83.188 970.071 71.4901 990.92 71.4901C998.865 71.4901 1007.3 73.5936 1011.27 73.5936C1015.25 73.5936 1018.97 72.1912 1021.7 71.4901L1022.44 98.863H1015.49C1013.51 87.4005 1006.56 75.9354 992.661 75.9354C981.244 75.9354 974.295 82.2513 974.295 93.0153C974.295 116.176 1025.67 114.07 1025.67 146.822C1025.67 163.902 1013.51 177.706 988.692 177.706C985.216 177.706 981.247 176.769 977.272 176.068C973.55 175.364 969.828 174.43 966.847 174.43C962.875 174.43 960.396 175.134 956.67 175.605L954.932 147.756V147.756ZM1083.08 120.854L1072.9 129.276V166.945C1072.9 168.347 1074.15 168.58 1075.14 168.58L1087.05 169.516V173.964H1037.41V169.516L1051.06 168.58C1054.04 168.347 1055.04 167.876 1055.04 166.005V61.1944C1055.04 44.35 1054.04 27.5055 1053.3 17.4454C1052.8 9.95722 1040.88 9.02323 1034.93 9.02323V2.70724C1050.57 2.23889 1067.2 0.368185 1071.66 0.368185C1072.9 0.368185 1073.65 1.06936 1073.65 2.70724L1072.9 123.19L1112.86 89.0357C1116.84 85.7599 1118.57 83.6537 1118.57 82.4842C1118.57 81.0791 1117.33 80.6135 1112.12 80.6135H1104.18V75.2315H1128C1136.69 75.2315 1143.64 74.7658 1150.34 74.5303V81.0818C1137.93 82.0185 1129.74 83.188 1120.06 90.9091L1095.24 111.029L1140.66 169.516H1151.58V173.964H1122.04L1083.08 120.854V120.854ZM570.986 83.0825L539.569 85.2455L538.592 139.78C538.199 158.742 544.797 168.09 560.929 168.09C568.374 168.09 573.09 165.515 576.815 163.179L577.56 164.581C571.106 171.604 561.178 176.748 548.273 176.748C529.658 176.748 519.922 163.723 520.088 145.936L520.71 85.7762L503.092 86.7535L503.701 78.5668L521.057 77.5786L522.329 38.9653L540.941 38.6594L539.666 77.0561L570.846 75.134L570.986 83.0825V83.0825ZM100.866 0H174.211V174.2L100.866 0ZM99.786 52.3228H74.4137L22.8002 174.2H4.13379L87.1053 26.3875L170.169 174.2H151.548L99.786 52.3228V52.3228Z" fill="white"/>
<path fill-rule="evenodd" clip-rule="evenodd" d="M87.1054 66.0186L146.933 174.2H130.397L98.6951 90.2429H75.5157L43.822 174.2H27.2754L87.1054 66.0186V66.0186Z" fill="white"/>
<path fill-rule="evenodd" clip-rule="evenodd" d="M48.1997 174.2L87.1054 102.382L126 174.2H48.1997ZM73.3418 0H0V174.2L73.3418 0Z" fill="white"/>
</svg>
