<svg width="1200" height="263" viewBox="0 0 1200 263" fill="none" xmlns="http://www.w3.org/2000/svg">
<path d="M652.726 86.6453H679.561V161.291C679.561 199.18 658.679 220.913 622.301 220.913C586.301 220.913 565.608 199.558 565.608 162.33V86.7398H592.443V161.48C592.443 183.59 603.309 195.401 622.679 195.401C642.049 195.401 652.726 183.873 652.726 162.425V86.6453ZM501.546 139.936H440.884V86.6453H414.05V218.928H440.884V165.165H501.451V218.928H528.286V86.6453H501.451V139.936H501.546ZM1173.54 86.6453V218.739H1200V86.6453H1173.54ZM1068.19 161.952H1117.04V137.858H1068.19V110.74H1139.06V86.7398H1041.73V218.834H1141.61V194.739H1068.19V161.952ZM962.93 177.543L932.883 86.5508H910.962L880.914 177.543L851.718 86.6453H823.182L869.292 218.834H891.497L921.544 131.999L951.591 218.834H973.985L1020 86.6453H992.127L962.93 177.543ZM775.466 87.4012L833.198 218.834H805.041L793.135 191.338H732.568L731.718 193.228L720.568 218.834H693.167L751.466 86.6453H774.899L775.466 87.4012ZM781.891 164.314L762.805 119.999L743.812 164.314L742.49 167.338H783.119L781.891 164.314Z" fill="white"/>
<path d="M149.862 204.85C150.24 204.566 150.334 203.999 150.145 203.527C124.091 147.527 91.5876 94.7605 53.2952 46.2991C53.2952 46.2991 22.8701 75.2124 25.0433 104.22C25.5524 110.908 27.375 117.43 30.4069 123.412C33.4387 129.395 37.6204 134.721 42.7126 139.086C69.2637 164.976 133.515 197.669 148.445 205.133C148.917 205.322 149.484 205.228 149.862 204.85V204.85ZM139.941 226.96C139.752 226.393 139.185 226.015 138.523 226.015L31.563 229.7C43.185 250.393 62.744 266.456 83.0589 261.542C97.1376 258.046 128.886 235.842 139.374 228.283C140.224 227.621 139.941 227.054 139.941 226.96V226.96ZM141.547 217.417C142.114 216.566 141.169 215.81 141.169 215.81C94.2085 184.062 3.12215 135.307 3.12215 135.307C0.103056 144.56 -0.741516 154.386 0.654069 164.019C2.04965 173.652 5.6478 182.834 11.1689 190.85C16.6899 198.867 23.9852 205.502 32.4877 210.241C40.9902 214.98 50.4708 217.694 60.1928 218.172C61.7991 218.456 123.783 218.173 140.413 218.078C140.885 217.984 141.263 217.795 141.547 217.417V217.417ZM148.633 0.0944879C144.004 0.472439 131.437 3.40156 131.437 3.40156C103.09 10.6771 96.3817 36.4723 96.3817 36.4723C91.1848 52.6297 96.4762 70.488 96.4762 70.488C105.925 112.441 152.413 181.511 162.429 195.968C163.09 196.724 163.657 196.44 163.657 196.44C164.224 196.251 164.696 195.779 164.696 195.117C180.192 40.9133 148.633 0.0944879 148.633 0.0944879V0.0944879ZM184.066 196.251C184.633 196.44 185.295 196.251 185.578 195.684C195.877 180.85 242.082 112.157 251.531 70.3935C251.531 70.3935 256.633 50.1731 251.72 36.3778C251.72 36.3778 244.728 10.2047 216.381 3.30708C216.381 3.30708 208.255 1.22834 199.562 0C199.562 0 167.815 40.8188 183.311 195.023C183.216 195.59 183.594 196.062 184.066 196.251V196.251ZM209.389 226.109C209.137 226.16 208.899 226.262 208.687 226.408C208.476 226.554 208.297 226.742 208.161 226.96C208.066 227.527 208.161 227.999 208.539 228.377C218.743 235.747 249.83 257.479 264.759 261.637C264.759 261.637 292.444 271.086 316.444 229.795L209.389 226.109ZM344.979 135.118C344.979 135.118 254.082 183.968 207.027 215.716C206.555 216.094 206.271 216.661 206.46 217.228C206.46 217.228 206.933 218.078 207.594 218.078C224.413 218.078 288.098 218.173 289.798 217.889C296.129 217.417 302.365 215.999 308.224 213.637C308.224 213.637 330.901 206.456 342.617 180.661C342.617 180.661 353.105 159.685 344.979 135.118ZM198.429 204.85C198.807 205.133 199.373 205.228 199.846 204.944C215.153 197.291 278.932 164.881 305.294 139.086C305.294 139.086 322.019 125.669 322.869 104.031C324.759 74.0785 294.617 46.2991 294.617 46.2991C294.617 46.2991 238.869 113.858 197.956 203.149C197.891 203.449 197.899 203.761 197.982 204.058C198.064 204.354 198.217 204.626 198.429 204.85" fill="white"/>
</svg>
