<svg width="1200" height="559" viewBox="0 0 1200 559" fill="none" xmlns="http://www.w3.org/2000/svg">
<path fill-rule="evenodd" clip-rule="evenodd" d="M967.015 422.202C949.491 409.938 926.728 402.921 898.679 402.921C872.407 402.921 849.637 409.938 830.381 422.202C811.101 437.948 800.588 457.242 800.588 481.756C800.588 506.284 811.101 523.801 830.381 539.56C849.637 551.824 872.413 558.841 898.679 558.841C926.728 558.841 949.491 551.824 967.015 539.56C988.033 523.801 996.795 506.284 996.795 481.756C996.789 457.242 988.033 437.948 967.015 422.202V422.202ZM898.672 446.716C910.949 446.716 919.704 450.225 928.466 455.471C935.483 462.488 940.73 469.48 940.73 478.248C942.468 502.775 928.466 515.039 898.672 515.039C886.409 515.039 875.909 511.531 867.153 504.514C860.136 497.509 856.641 488.754 856.641 478.241C858.379 469.473 861.9 462.482 868.892 455.465C877.653 450.225 886.409 446.716 898.672 446.716V446.716ZM1192.98 408.167H1129.92L1068.61 465.997V360.889H1010.8V555.332H1068.61V476.497L1126.41 555.332H1200L1124.67 471.244L1192.98 408.167V408.167ZM490.511 406.429C460.724 406.429 437.961 413.446 420.437 425.684C402.921 439.718 394.159 457.242 392.408 481.756C392.408 529.048 425.691 553.588 494.02 555.332H579.86V515.046H497.516C474.746 513.282 458.98 508.029 453.72 497.522C446.716 487.01 446.716 476.503 451.969 466.003C458.98 453.74 472.988 446.723 490.511 446.723H525.545L487.003 497.522H541.311L579.853 448.48V406.436H490.511V406.429ZM656.931 360.889H597.37V553.588H705.974C730.514 553.588 749.769 546.571 763.79 532.556C779.563 520.292 786.567 502.775 788.318 481.756C788.318 439.712 770.807 416.929 735.767 409.938L686.725 408.174L660.44 446.723H683.216C718.257 446.723 734.016 457.248 734.016 481.763C732.265 502.782 716.506 515.046 686.725 515.046H656.931V360.889ZM0 360.889V553.588H59.5613V404.672H115.62C127.878 408.167 136.639 415.184 134.895 429.186C134.895 437.942 131.386 444.959 124.382 446.71L68.3229 451.957L129.635 555.32H201.46L141.899 474.746C178.69 472.982 196.207 453.727 192.699 418.687C192.699 399.406 183.937 385.391 168.178 374.891C154.156 366.136 136.639 360.883 115.62 360.883H0V360.889V360.889Z" fill="white"/>
<path fill-rule="evenodd" clip-rule="evenodd" d="M294.304 406.429C264.524 406.429 241.754 413.446 224.23 425.684C206.713 437.948 197.952 457.242 197.952 480.005C196.207 529.047 229.49 553.594 296.055 553.594H383.646V515.045H301.321C278.538 513.281 262.779 508.028 257.526 497.522C250.515 487.009 250.515 476.503 255.775 466.003C262.779 453.739 276.787 446.722 294.311 446.722H329.344L290.809 497.522H345.117L383.653 446.722V406.435H294.304V406.429V406.429ZM606.132 52.5571L697.218 108.616L842.613 54.3146C891.681 38.5487 954.744 21.0254 1030.06 0C844.383 15.7723 704.235 31.5317 606.132 52.5571ZM536.064 112.125L455.478 91.0994C409.931 103.37 366.136 122.631 325.849 147.165C285.549 171.68 254.024 199.722 232.998 229.503H369.644C380.157 213.73 397.674 196.207 420.444 178.69C453.72 150.667 492.269 129.642 536.064 112.125ZM632.417 145.401L564.094 122.625C548.322 129.642 529.06 138.397 506.277 154.156C474.746 175.182 446.716 201.46 422.195 229.503H550.073C567.59 201.46 595.619 173.437 632.417 145.401V145.401ZM476.503 0H203.218L476.497 73.5825C597.37 110.361 709.482 152.418 812.858 196.207L476.503 0V0Z" fill="white"/>
</svg>
