<svg width="1200" height="236" viewBox="0 0 1200 236" fill="none" xmlns="http://www.w3.org/2000/svg">
<g clip-path="url(#clip0_22_24)">
<path d="M1172.29 234.871H1158.77C1158.77 125.289 1068.24 35.991 957.431 35.991V22.4583C1075.67 22.4583 1172.29 117.847 1172.29 234.871ZM1181.76 161.806C1165.54 92.8073 1110.13 35.991 1039.86 15.6919L1043.23 4.87474C1116.88 25.8339 1174.99 86.7161 1192.56 159.106L1181.76 161.806ZM1191.88 97.5483C1174.99 61.016 1146.62 29.2246 1111.48 7.57528L1116.21 0.133789C1152.7 22.4583 1183.11 55.5999 1200 94.1576L1191.88 97.5483Z" fill="white"/>
<path d="M5.40108 203.754C11.4773 207.13 24.3199 211.871 33.7718 211.871C43.9138 211.871 47.9646 208.48 47.9646 203.079C47.9646 197.663 44.5889 194.963 32.4215 190.897C10.127 183.455 2.02541 171.288 2.02541 158.43C2.02541 138.806 18.9188 123.248 45.9392 123.248C58.1066 123.248 69.5839 125.964 76.3503 129.34L70.2591 152.339C65.5331 149.639 56.0812 146.248 47.2895 146.248C39.1878 146.248 34.4619 149.639 34.4619 155.04C34.4619 159.781 38.5127 162.481 52.0154 167.222C72.2995 173.989 81.0762 184.806 81.0762 200.364C81.0762 220.663 65.5331 234.871 34.4619 234.871C20.2691 234.871 8.10162 231.48 0 227.429L5.40108 203.754ZM197.965 178.039C197.965 217.287 170.269 235.546 141.208 235.546C110.137 235.546 85.8022 215.247 85.8022 180.08C85.8022 144.898 108.772 123.248 143.234 123.248C175.67 123.248 197.965 145.573 197.965 178.039V178.039ZM120.264 178.729C120.264 196.988 127.691 211.196 141.883 211.196C154.726 211.196 162.828 198.338 162.828 178.729C162.828 162.481 156.751 146.248 141.883 146.248C126.34 146.923 120.264 163.156 120.264 178.729V178.729ZM209.457 159.781C209.457 146.248 208.782 134.756 208.782 125.289H237.828L239.178 140.157H239.853C243.919 133.405 255.396 123.248 272.965 123.248C294.584 123.248 311.477 137.456 311.477 169.248V232.845H278.381V173.313C278.381 159.781 273.64 150.314 261.487 150.314C252.02 150.314 246.619 156.405 244.594 162.481C243.244 164.522 243.244 167.897 243.244 170.598V232.17H209.457V159.781ZM390.528 232.845L388.503 222.013H387.828C381.076 230.805 369.584 234.871 357.431 234.871C335.812 234.871 322.97 219.313 322.97 201.729C322.97 173.989 347.965 160.456 385.802 160.456V159.106C385.802 153.689 382.427 145.573 366.208 145.573C355.406 145.573 343.914 149.639 336.487 153.689L330.396 132.04C337.838 127.989 352.691 122.573 372.299 122.573C408.097 122.573 419.589 143.547 419.589 168.572V205.78C419.589 215.922 420.264 226.079 420.939 232.17H390.528V232.845ZM386.477 182.105C368.909 182.105 355.406 186.171 355.406 199.014C355.406 207.805 360.807 211.871 368.234 211.871C376.35 211.871 383.102 206.455 385.802 199.689C386.477 197.663 386.477 195.638 386.477 194.288V182.105ZM436.482 160.456C436.482 144.898 435.807 134.081 435.807 125.289H464.178L465.528 144.898H466.218C471.619 129.34 485.137 122.573 495.264 122.573C498.64 122.573 499.99 122.573 502.015 123.248V154.365C499.99 154.365 496.614 153.689 493.239 153.689C481.071 153.689 472.97 160.456 470.269 170.598C469.594 172.638 469.594 175.339 469.594 178.039V232.17H436.482V160.456ZM510.807 213.221C516.208 216.612 526.35 220.663 536.477 220.663C550.67 220.663 556.746 213.897 556.746 205.105C556.746 195.638 551.345 190.897 537.152 185.481C518.234 178.729 508.782 167.897 508.782 155.73C508.782 138.806 522.3 124.599 545.269 124.599C556.071 124.599 565.538 127.989 571.614 131.365L566.888 145.573C562.838 142.872 554.721 139.482 545.269 139.482C533.777 139.482 527.701 146.248 527.701 153.689C527.701 162.481 533.777 166.547 547.97 171.963C566.213 178.729 575.665 188.196 575.665 203.754C575.665 222.688 561.487 235.546 535.802 235.546C524.325 235.546 513.508 232.845 506.081 228.104L510.807 213.221ZM687.828 178.729C687.828 217.962 660.807 234.871 635.137 234.871C606.751 234.871 584.457 213.897 584.457 180.08C584.457 144.223 607.427 123.924 637.162 123.924C666.883 123.924 687.828 146.248 687.828 178.729V178.729ZM603.376 180.08C603.376 203.079 616.893 220.663 635.812 220.663C654.056 220.663 668.234 203.079 668.234 179.405C668.234 161.131 659.457 138.806 636.487 138.806C613.503 138.806 603.376 159.781 603.376 180.08ZM791.888 203.754C791.888 214.572 791.888 224.039 792.564 232.845H775.67L774.32 215.247H773.645C768.919 224.039 757.427 234.871 738.508 234.871C721.614 234.871 702.02 225.404 702.02 188.196V125.964H721.614V184.806C721.614 205.105 727.691 218.637 745.259 218.637C758.102 218.637 766.894 209.846 770.944 201.039C772.295 198.338 772.97 194.963 772.97 190.897V125.964H792.564V203.754H791.888ZM814.858 159.781C814.858 147.598 814.858 136.781 814.183 126.639H831.076L831.751 147.598H832.427C837.153 133.405 848.645 124.599 861.487 124.599C863.513 124.599 865.538 124.599 866.888 125.289V143.547C864.863 142.872 862.838 142.872 860.137 142.872C846.619 142.872 837.152 153.014 834.452 167.897C833.777 170.598 833.777 173.313 833.777 176.689V233.52H814.858V159.781ZM951.34 228.779C946.614 231.48 935.137 234.871 920.944 234.871C889.183 234.871 868.239 213.221 868.239 180.755C868.239 148.288 890.533 124.599 924.995 124.599C936.487 124.599 946.614 127.314 952.016 130.015L947.29 144.898C942.564 142.197 935.812 140.157 924.995 140.157C900.675 140.157 887.833 158.43 887.833 180.08C887.833 204.43 903.376 219.988 924.32 219.988C935.137 219.988 942.564 217.287 947.965 214.572L951.34 228.779ZM1011.49 219.988C1024.99 219.988 1033.78 217.287 1040.53 214.572L1043.91 228.104C1037.16 231.48 1025.67 234.871 1008.77 234.871C976.35 234.871 956.756 213.221 956.756 181.43C956.756 149.639 975.675 123.924 1006.75 123.924C1041.21 123.924 1050.68 154.365 1050.68 173.989C1050.68 178.039 1050 180.755 1050 182.78H975C975.675 209.171 991.893 219.988 1011.49 219.988V219.988ZM1004.05 138.131C984.452 138.131 975.675 156.405 974.325 169.248H1031.08C1031.08 157.08 1026.34 138.131 1004.05 138.131V138.131Z" fill="white"/>
</g>
<defs>
<clipPath id="clip0_22_24">
<rect width="1200" height="235.68" fill="white"/>
</clipPath>
</defs>
</svg>
