<svg width="1200" height="223" viewBox="0 0 1200 223" fill="none" xmlns="http://www.w3.org/2000/svg">
<path fill-rule="evenodd" clip-rule="evenodd" d="M607.466 208.787C609.948 211.222 612.751 213.307 615.798 214.983C626.298 220.742 638.35 220.774 649.896 217.644C654.943 216.227 659.843 214.326 664.526 211.968C669.823 209.335 674.934 206.344 679.824 203.014C685.263 199.308 690.486 195.295 695.468 190.994C699.149 196.638 703.274 202.026 706.891 206.061C710.509 210.095 713.632 212.776 716.512 214.777C722.086 218.658 727.16 220.159 732.4 220.236C734.921 220.255 737.371 219.896 740.007 219.132C745.196 217.747 751.784 213.924 758.069 208.357L779.544 189.621C779.895 189.417 780.218 189.169 780.506 188.884C781.173 188.326 782.347 187.299 783.123 186.639C783.729 186.08 784.394 185.587 785.105 185.17C786.093 184.804 786.432 185.6 787.157 186.369C787.446 186.716 787.799 187.177 788.299 187.966C788.799 188.755 789.441 189.865 790.05 190.994L801.474 210.178C802.314 211.596 803.314 212.911 804.533 214.11C808.138 217.734 813.102 219.851 817.085 219.774C820.131 219.767 823.126 219.002 825.802 217.548C828.695 216.092 832.293 213.026 835.738 208.812L851.285 190.077C852.562 188.524 853.864 186.991 854.794 186.023C856.397 184.374 856.949 184.124 857.828 183.675C858.743 183.253 859.767 183.128 860.758 183.316C861.748 183.505 862.654 183.998 863.35 184.727C863.716 185.061 864.152 185.484 865.14 186.837C866.115 188.197 867.648 190.481 869.097 192.815L877.782 205.612C879.597 208.273 881.663 210.768 883.459 212.673C887.217 216.586 889.86 218.1 893.028 219.46C894.683 220.127 896.473 220.665 898.756 221.037C901.033 221.409 903.804 221.621 906.575 221.608C910.18 221.672 913.791 221.518 916.735 221.23C919.692 220.941 921.982 220.518 928.575 218.607C935.163 216.702 946.041 213.321 956.836 209.729C961.531 212.911 966.508 215.682 970.716 217.548C974.588 219.31 978.699 220.492 982.915 221.057C988.202 221.796 993.536 222.132 998.874 222.064C1009.2 222.002 1019.49 220.982 1029.63 219.017C1039.26 217.105 1048.7 214.319 1057.82 210.692C1066.97 207.09 1075.83 202.795 1084.33 197.844C1090.18 203.591 1096.38 209.024 1100.8 212.43C1105.23 215.836 1107.89 217.221 1110.46 218.318C1113.03 219.415 1115.51 220.229 1118.83 220.768C1122.15 221.3 1126.31 221.563 1129.98 221.602C1133.39 221.644 1136.8 221.475 1140.19 221.095C1151.86 219.806 1163.28 216.781 1174.06 212.122C1177.47 210.627 1180.41 209.082 1182.75 207.677C1185.09 206.272 1186.82 205.002 1188.08 203.931C1189.06 203.128 1189.95 202.22 1190.74 201.224C1192.95 198.415 1192.29 196.292 1191.29 193.855C1190.66 192.694 1189.72 191.735 1188.57 191.09C1187.37 190.441 1186.06 190.019 1184.71 189.846C1183.55 189.69 1182.37 189.612 1181.2 189.615C1179.67 189.602 1177.69 189.64 1174.43 189.865C1171.16 190.083 1166.62 190.487 1163.5 190.718C1160.37 190.949 1158.67 191.019 1157.02 191C1149.77 190.918 1142.68 188.886 1136.49 185.119C1135.22 184.346 1134.01 183.473 1132.88 182.508C1128.48 178.685 1126.96 174.651 1129.23 171.309C1129.49 170.918 1129.83 170.475 1131.11 169.385C1132.38 168.307 1134.6 166.582 1136.88 164.953L1162.46 145.313L1151.04 131.144L1114.94 154.908L1099.41 130.233H1042.75L1071.99 183.695C1066.31 186.639 1060.38 189.153 1055.16 190.872C1044.79 194.239 1036.24 195.028 1026.75 195.112C1024.79 195.118 1022.84 195.003 1021.01 194.804C1019.17 194.605 1017.49 194.316 1015.26 193.688C1012.65 192.933 1010.08 192.036 1007.56 191C1013.81 187.052 1019.91 182.865 1025.84 178.448C1030.08 175.215 1031.62 173.554 1032.86 172.104C1035.43 169.045 1036.63 166.838 1037.56 164.176C1038.63 161.194 1039.09 157.422 1039.09 153.535C1039.1 151.034 1038.79 148.532 1038.19 146.198C1037.02 141.605 1034.56 137.446 1031.09 134.223C1029.18 132.458 1027.03 130.968 1024.71 129.797C1022.01 128.426 1019.14 127.405 1016.18 126.757C1012.95 126.038 1009.34 125.641 1005.18 125.666C1001.02 125.692 996.308 126.141 991.574 127.064C986.841 127.988 982.082 129.386 977.605 131.17C973.121 132.959 968.914 135.133 965.155 137.532C961.396 139.931 958.087 142.555 955.258 145.261C942.757 157.506 939.197 170.052 940.114 182.617C940.217 183.765 940.39 184.888 940.8 186.587C941.224 188.293 941.904 190.577 942.68 192.828C939.588 192.847 936.49 192.694 934.226 192.443C932.555 192.284 930.905 191.955 929.3 191.462C925.753 190.34 923.213 188.646 920.481 185.51C919.467 184.33 918.325 182.867 916.722 180.244C915.118 177.62 913.104 173.81 911.148 169.981L900.174 148.5C898.686 145.582 897.114 142.696 895.838 140.65C894.561 138.603 893.593 137.391 892.72 136.416C888.013 131.285 884.427 130.836 880.078 130.682C878.038 130.654 876 130.822 873.991 131.182C872.406 131.464 870.867 131.963 869.418 132.664C867.859 133.439 866.38 134.362 864.999 135.422C863.331 136.66 861.356 138.296 856.442 144.088C851.542 149.873 843.717 159.821 836.212 169.975L825.238 146.217C824.057 143.651 822.621 141.188 821.081 139.187C819.542 137.186 817.926 135.64 816.207 134.409C810.004 129.996 802.288 129.572 795.585 132.606C794.408 133.131 793.269 133.739 792.18 134.428C790.967 135.178 789.672 136.096 788.222 137.276C786.772 138.456 785.162 139.918 783.123 142.074C781.083 144.229 778.601 147.083 774.958 151.983C771.314 156.884 766.504 163.837 763.38 167.961C760.263 172.098 758.858 173.413 757.755 174.343C755.125 176.569 753.535 177.223 751.681 177.28C750.065 177.287 748.499 176.543 747.069 174.946C746.521 174.322 746.027 173.653 745.594 172.945C745.029 172.079 744.414 170.975 743.599 169.045C742.785 167.114 741.758 164.33 740.289 159.732C738.833 155.133 736.935 148.725 735.53 144.652C734.126 140.579 733.24 138.841 732.471 137.462C731.874 136.357 731.212 135.288 730.489 134.261C729.996 133.551 729.447 132.881 728.847 132.26C724.524 127.911 720.406 128.225 716.41 130.169C715.493 130.65 714.53 131.317 713.337 132.279C712.144 133.241 710.733 134.518 707.962 138.527C705.192 142.535 701.074 149.289 697.751 154.312C694.442 159.334 691.927 162.637 689.823 165.1C688.171 167.056 686.36 168.873 684.41 170.533C678.458 175.581 672.807 177.659 667.336 178.397C664.719 178.762 661.069 178.762 657.58 178.371C656.175 178.219 654.785 177.953 653.423 177.576C650.024 176.67 646.984 174.745 644.713 172.059C643.55 170.686 642.491 169.229 641.544 167.698C654.546 151.63 666.649 134.768 674.231 122.6C681.812 110.433 684.878 102.954 687.206 96.1614C689.535 89.3689 691.138 83.2819 692.164 77.3488C693.191 71.4094 693.64 65.6367 693.64 60.871C693.653 56.1053 693.204 52.3531 692.312 48.8702C691.433 45.381 690.106 42.1611 688.406 39.294C686.706 36.4269 684.609 33.9126 682.242 31.8601C679.888 29.814 677.258 28.2297 674.539 27.1906C671.819 26.1515 669.029 25.6576 666.033 25.5999C662.814 25.5762 659.604 25.9511 656.476 26.716C652.848 27.582 649.32 28.8267 645.951 30.4297C642.269 32.1743 638.382 34.4834 634.303 37.5365C630.224 40.5896 625.933 44.406 621.526 49.1845C616.613 54.5601 612.159 60.3381 608.21 66.4577C603.83 73.2182 599.564 80.9985 596.408 88.5927C593.253 96.187 591.2 103.615 589.776 112.658C588.352 121.702 587.557 132.375 587.64 143.023C587.64 147.66 587.807 152.291 588.115 156.492C588.423 160.687 588.865 164.446 589.398 167.852C589.93 171.251 590.54 174.292 591.29 177.3C589.186 179.026 586.968 180.607 584.651 182.033C582.58 183.29 580.777 184.15 579.167 184.779C577.765 185.341 576.314 185.77 574.831 186.061C573.706 186.279 572.565 186.406 571.419 186.44C569.02 186.459 567.41 186.036 565.499 184.888C564.176 184.039 563.03 182.941 562.125 181.655C561.541 180.866 560.932 179.91 560.291 178.627C559.649 177.345 558.95 175.747 558.392 174.099L542.402 127.039L493.507 138.924L503.564 176.844C500.601 178.211 497.593 179.474 495.63 180.192C494.478 180.661 493.281 181.009 492.058 181.232C490.484 181.563 488.852 181.474 487.324 180.975C486.233 180.564 485.4 179.878 484.527 178.659C484.175 178.178 483.777 177.563 482.962 175.722C482.148 173.881 480.923 170.802 479.8 167.704L470.205 143.946C469.458 142.128 468.547 140.38 467.485 138.725C465.477 135.627 463.694 134.107 461.757 132.978C460.703 132.371 459.567 131.917 458.383 131.631C457.113 131.317 455.664 131.144 453.906 131.163C452.149 131.182 450.077 131.388 447.967 131.856C445.857 132.324 443.708 133.055 441.174 134.21C438.641 135.364 435.71 136.961 431.303 140.059C425.8 144 420.483 148.195 415.371 152.631C411.91 148.136 408.142 143.886 404.095 139.912C397.392 133.556 393.056 131.497 387.822 129.425C382.453 127.424 376.36 126.583 370.132 126.59C362.967 126.603 355.437 127.449 348.234 130.426C342.091 132.932 336.743 137.06 332.763 142.369C331.389 144.191 330.15 146.112 329.056 148.116C327.728 150.508 326.279 153.51 324.534 158.41C322.789 163.311 320.756 170.122 319.268 174.311C317.78 178.499 316.856 180.051 316.029 181.238C312.546 186.209 309.75 186.305 306.921 186.446C303.669 186.465 299.923 185.51 297.03 182.36C296.293 181.597 295.517 180.641 294.612 179.32C293.708 177.999 292.675 176.306 291.2 173.259C289.335 169.34 287.615 165.354 286.043 161.309L270.964 122.466C269.719 119.265 268.315 116.116 266.903 113.64C265.492 111.164 264.12 109.342 262.773 107.886C257.994 102.896 254.05 102.05 249.406 101.902C247.656 101.887 245.908 102.033 244.185 102.338C240.99 102.954 238.803 103.942 236.212 105.718C234.653 106.849 233.188 108.104 231.831 109.471C230.119 111.151 228.066 113.338 223.365 120.047C218.657 126.763 211.293 138.007 204.257 149.418L181.865 79.5104C181.037 76.8778 180.091 74.2839 179.03 71.7365C178.294 69.9828 177.424 68.2887 176.426 66.6694C175.735 65.53 174.952 64.4489 174.085 63.4367C169.383 58.1964 165.086 57.6896 160.75 57.5806C159.533 57.5833 158.318 57.669 157.113 57.8372C154.259 58.2861 152.033 59.1585 149.744 61.2238C148.938 61.9874 148.195 62.8154 147.524 63.6997C146.716 64.7516 145.792 66.0665 144.157 69.498C142.515 72.9295 140.18 78.4777 137.999 84.0837L113.324 147.59L82.248 29.7049C81.1319 25.4716 79.6759 21.3153 78.1045 17.9158C76.533 14.5164 74.8782 11.8481 73.1335 9.65445C71.3889 7.46083 69.5673 5.74188 67.5982 4.35002C65.6052 2.92475 63.3903 1.83895 61.043 1.13656C56.7817 -0.0684455 52.3071 -0.31901 47.9379 0.402721C43.5687 1.12445 39.4124 2.80073 35.765 5.31214C32.7018 7.41902 29.9453 9.94021 27.5742 12.8038C24.8097 16.075 21.9747 20.2377 18.8061 26.2734C12.4177 38.1844 5.31087 57.5806 2.31549 74.3599C0.835477 82.0817 0.0604579 89.9221 0 97.7842C0 98.9516 0.0705554 100.125 0.186009 101.1C0.564441 103.506 0.904387 105.436 3.02104 107.437C5.16976 109.169 7.38263 109.362 10.083 109.111C12.206 108.945 14.9833 107.033 16.2341 105.039C16.6382 104.468 17.0423 103.807 17.4463 103.005C18.848 100.066 19.8345 96.9472 20.3776 93.7369C20.9998 90.4336 21.7053 85.4627 22.3788 80.774C23.0459 76.0853 23.6873 71.6852 24.2389 68.8758C24.7841 66.0664 25.2395 64.8414 25.6307 63.8921C26.022 62.9428 26.3427 62.2757 26.6634 61.7177C27.2022 60.8197 27.6832 60.1655 28.562 59.4727C29.4185 58.8153 30.4713 58.4651 31.5509 58.4786C32.667 58.3503 34.0332 58.966 34.3796 59.9089C34.5143 60.159 34.6682 60.4798 34.8734 60.9736C35.0787 61.4675 35.3288 62.1154 36.0023 64.6938C36.6822 67.2787 37.7598 71.7878 38.8309 76.3097L65.334 188.255C66.4757 193.072 67.983 197.806 69.5481 201.609C71.1131 205.406 72.7295 208.261 74.3715 210.563C76.0199 212.86 77.7004 214.604 79.4707 216.002C84.6533 220.056 90.7723 221.005 97.366 219.684C100.65 218.927 103.491 217.535 106.519 215.124C108.052 213.899 109.636 212.372 111.368 210.352C113.1 208.331 114.973 205.81 117.089 202.276C119.206 198.748 121.573 194.214 123.555 190.166C125.516 186.126 127.389 182.043 129.174 177.922C131.2 173.284 133.663 167.582 136.024 162.413C138.384 157.243 140.648 152.618 143.009 148.045L144.029 150.81C144.394 151.81 144.792 152.933 147.037 159.436C149.282 165.94 153.367 177.813 156.299 185.952C159.23 194.098 161.007 198.498 162.694 202.007C164.38 205.522 165.978 208.145 167.491 210.262C172.09 216.612 176.182 218.991 180.358 220.114C184.349 221.109 188.552 220.824 192.372 219.299C195.04 218.222 197.529 216.676 200.248 214.168C201.711 212.815 203.282 211.121 205.168 208.799C207.053 206.477 209.254 203.514 213.108 196.427C216.957 189.345 222.46 178.14 227.54 166.774L241.247 198.306C242.87 202.045 244.993 205.586 247.34 208.504C249.527 211.248 252.126 213.637 255.044 215.585C257.834 217.439 260.836 218.825 264.133 219.755C267.539 220.71 271.063 221.181 274.6 221.153C279.681 220.958 284.715 220.106 289.577 218.619C295.424 216.82 301.098 214.5 306.53 211.686C312.593 208.579 318.416 205.025 323.95 201.051C327.26 204.517 330.775 207.781 334.476 210.826C340.755 215.829 344.604 217.49 349.421 219.165C351.826 219.941 354.385 220.55 357.477 220.948C360.568 221.345 364.192 221.544 366.989 221.595C369.792 221.647 371.767 221.551 373.66 221.39C384.403 220.293 394.993 217.798 404.928 206.298C406.282 204.726 407.693 202.937 409.437 199.877C411.182 196.811 413.26 192.488 415.043 188.698C416.82 184.907 418.289 181.661 419.367 179.731C420.444 177.8 421.13 177.165 421.733 176.697C423.933 174.933 425.947 175.228 427.917 176.299C428.436 176.601 428.981 176.998 429.616 177.595C430.251 178.191 430.97 178.987 431.957 180.488C432.945 181.988 434.202 184.208 436.229 188.383C438.256 192.559 441.065 198.704 443.144 202.687C445.228 206.676 446.582 208.504 447.787 210.031C448.993 211.557 450.058 212.776 451.084 213.809C457.19 219.742 462.591 221.05 468.357 221.153C475.009 221.179 480.942 220.069 486.933 217.516C489.992 216.227 493.244 214.546 498.01 211.031C502.782 207.517 509.061 202.18 514.962 196.478C518.866 201.277 522.975 205.906 527.277 210.352C530.606 213.725 532.639 215.316 534.423 216.535C538.2 219.075 540.747 220.043 543.909 220.678C545.57 220.999 547.405 221.159 549.233 221.153C553.511 220.993 557.757 220.268 562.959 218.664C573.318 215.521 587.409 208.645 600.18 199.678C602.247 202.987 604.692 206.044 607.466 208.787V208.787ZM656.784 51.2755C657.9 51.3974 659.305 52.4493 659.831 53.4371C660.447 54.4698 660.71 55.3228 661.011 56.5992C661.184 57.3946 661.351 58.3759 661.473 59.7935C661.601 61.2046 661.672 63.0518 661.672 64.8927C661.51 69.7707 661.009 74.6316 660.171 79.4399C659.263 84.7277 658.105 89.9696 656.701 95.148C655.481 99.6754 653.94 104.11 652.089 108.419C647.955 118.048 643.139 127.37 637.677 136.314C636.418 138.391 635.036 140.391 633.54 142.304C632.886 143.158 632.17 143.962 631.397 144.71C629.954 145.973 629.095 146.634 628.177 145.935C627.664 145.3 627.575 144.909 627.337 144.126C627.162 143.472 627.016 142.811 626.901 142.144C626.64 140.596 626.464 139.035 626.375 137.468C626.182 134.144 626.06 130.817 626.009 127.488C626.195 121.876 626.786 116.289 628.004 109.419C629.229 102.556 631.083 94.4168 632.975 87.682C634.855 80.9472 636.772 75.617 638.485 71.4543C640.217 67.2915 641.743 64.2898 643.071 61.9743C644.412 59.6652 645.566 58.0488 646.605 56.766C649.889 52.7508 652.891 51.1857 655.713 51.1729C656.085 51.1857 656.451 51.2178 656.784 51.2755V51.2755ZM981.235 163.24C981.665 161.408 982.318 159.635 983.178 157.961C984.044 156.255 985.148 154.632 986.411 153.202C991.196 147.917 996.924 145.832 1002.38 147.044C1003.36 147.269 1004.26 147.602 1005.06 148.019C1005.88 148.43 1006.59 148.937 1007.19 149.488C1010.95 153.221 1010.12 156.973 1008.72 160.783C1008.31 161.746 1007.77 162.765 1007.03 163.894C1006.28 165.03 1005.32 166.267 1003.95 167.768C1002.03 169.842 999.947 171.764 997.726 173.515C994.621 176.023 990.183 179.282 985.622 182.354C983.23 179.089 981.588 175.953 981.036 173.105C980.414 170.135 980.446 166.691 981.235 163.24V163.24ZM386.212 155.171C389.801 156.314 392.79 158.834 394.524 162.178C396.258 165.522 396.595 169.417 395.461 173.009C394.602 175.853 392.839 178.339 390.439 180.09C388.593 181.43 386.455 182.312 384.2 182.661C381.946 183.01 379.641 182.817 377.476 182.097C375.983 181.607 374.578 180.882 373.313 179.949C370.792 178.104 368.923 175.505 367.977 172.528C367.044 169.711 367.062 166.666 368.03 163.861C368.998 161.056 370.861 158.647 373.333 157.006C375.211 155.768 377.34 154.962 379.567 154.645C381.794 154.328 384.063 154.507 386.212 155.171V155.171ZM721.515 64.9376C716.024 64.9451 710.675 66.6796 706.224 69.8956C703.964 71.5211 701.976 73.4957 700.336 75.7453C695.449 82.602 694.3 90.5427 696.731 98.0856C697.559 100.581 698.822 103.044 700.477 105.295C702.132 107.54 704.184 109.567 706.468 111.202C713.594 116.186 721.503 117.315 729.353 114.91C734.572 113.256 739.118 109.963 742.316 105.52C747.204 98.6051 748.339 90.5747 745.934 82.7303C745.112 80.1589 743.891 77.7325 742.316 75.5401C739.944 72.2443 736.818 69.5628 733.2 67.7187C729.582 65.8745 725.576 64.9211 721.515 64.9376V64.9376ZM1187.65 146.884C1189.48 146.294 1191.21 145.409 1192.77 144.267C1194.3 143.132 1195.65 141.746 1196.74 140.207C1200.05 135.416 1200.8 129.803 1199.18 124.306C1198.06 120.687 1195.81 117.523 1192.75 115.282C1190.43 113.575 1187.73 112.448 1184.88 111.993C1182.03 111.539 1179.12 111.772 1176.38 112.671C1174.54 113.261 1172.79 114.147 1171.24 115.282C1169.7 116.417 1168.35 117.796 1167.26 119.329C1163.9 124.159 1163.2 129.694 1164.8 135.217C1165.92 138.849 1168.18 142.025 1171.24 144.274C1173.57 145.979 1176.28 147.106 1179.13 147.56C1181.99 148.014 1184.91 147.782 1187.65 146.884V146.884ZM1168.25 125.018C1168.71 123.511 1169.41 122.087 1170.29 120.817C1171.18 119.554 1172.27 118.438 1173.51 117.533C1175.98 115.732 1178.95 114.761 1182 114.761C1185.06 114.761 1188.03 115.732 1190.49 117.533C1191.71 118.438 1192.8 119.547 1193.69 120.824C1196.46 124.884 1197.1 129.669 1195.73 134.492C1194.86 137.5 1193.03 140.142 1190.52 142.016C1186.64 144.832 1182.08 145.467 1177.52 144.081C1174.59 143.128 1172.05 141.249 1170.28 138.725C1167.55 134.723 1166.86 129.829 1168.25 125.018V125.018ZM1181.86 131.157L1187.26 140.156H1190.74L1184.9 131.016C1186.4 130.823 1188.49 130.24 1189.55 128.27C1190.07 127.258 1190.32 126.13 1190.28 124.994C1190.23 123.858 1189.9 122.752 1189.31 121.779C1187.16 119.265 1185.45 119.56 1182.99 119.393H1175.18V140.149H1178.29V131.15H1181.86V131.157V131.157ZM1178.28 122.068H1182.5C1183.96 122.113 1186.12 122.132 1186.83 124.101C1187.08 125.076 1187.22 126.93 1185.65 127.898C1185.14 128.186 1184.57 128.355 1183.99 128.392C1182.46 128.565 1180.18 128.469 1178.28 128.495V122.068H1178.28Z" fill="white"/>
</svg>
